<svg xmlns="http://www.w3.org/2000/svg" viewBox="0 0 200 200"><defs><clipPath id="a"><path d="M0 0h200v200H0z"/></clipPath></defs><g clip-path="url(#a)"><path fill="#fff" d="M0 100C0 25 25 0 100 0s100 25 100 100-25 100-100 100S0 175 0 100"/><path fill="#005d9b" d="m154.713 39.63-34.1-15.276a9.592 9.592 0 0 0-10.944 1.86L32.813 97.318c-2.794 2.547-.422 15.231 2.376 17.775l5.411 3.844a6.416 6.416 0 0 0 8.194.364l101.148-75.707a6.372 6.372 0 0 1 10.224 5.077v-.368a9.625 9.625 0 0 0-5.453-8.673Z"/><path fill="#007dd1" d="m154.717 160.37-34.1 15.277a9.592 9.592 0 0 1-10.944-1.86l-76.86-60.826c-4.026-3.821-3.922-11.2.007-15.649l7.693-7.147a6.532 6.532 0 0 1 8.281-.226l101.148 66.467a6.372 6.372 0 0 0 10.228-5.076v.368a9.625 9.625 0 0 1-5.453 8.672Z"/><path fill="#09f" d="M120.618 175.65a9.6 9.6 0 0 1-10.945-1.863 5.638 5.638 0 0 0 9.624-3.987V30.199a5.638 5.638 0 0 0-9.629-3.986 9.6 9.6 0 0 1 10.95-1.863l34.1 15.256a9.624 9.624 0 0 1 5.453 8.674v103.441a9.624 9.624 0 0 1-5.453 8.674Z"/></g></svg>