<svg xmlns="http://www.w3.org/2000/svg" viewBox="0 0 200 200"><defs><clipPath id="a"><path d="M0 0h200v200H0z"/></clipPath></defs><g clip-path="url(#a)"><path fill="#fff" d="M0 100C0 25 25 0 100 0s100 25 100 100-25 100-100 100S0 175 0 100"/><path fill="#005d9b" d="m145.275 49.175-26.712-12.862a8.076 8.076 0 0 0-9.214 1.566L42.644 97.741c-2.352 2.144-2.355 10.823 0 12.964l4.556 3.236a5.4 5.4 0 0 0 6.9.307l87.155-61.737a5.365 5.365 0 0 1 8.607 4.274v-.31a8.1 8.1 0 0 0-4.587-7.3Z"/><path fill="#007dd1" d="m145.274 150.825-26.711 12.861a8.075 8.075 0 0 1-9.214-1.566l-66.7-51.209c-3.389-3.217-3.3-9.426.006-13.174l4.476-4.017a5.5 5.5 0 0 1 6.972-.19l87.155 53.958a5.365 5.365 0 0 0 8.607-4.274v.31a8.1 8.1 0 0 1-4.591 7.301Z"/><path fill="#09f" d="M118.564 163.689a8.079 8.079 0 0 1-9.215-1.568 4.746 4.746 0 0 0 8.1-3.356V41.236a4.746 4.746 0 0 0-8.1-3.356 8.08 8.08 0 0 1 9.215-1.568l26.707 12.843a8.1 8.1 0 0 1 4.591 7.3v87.086a8.1 8.1 0 0 1-4.591 7.3Z"/></g></svg>