<svg xmlns="http://www.w3.org/2000/svg" viewBox="0 0 109.725 128.975"><path fill="#005d9b" d="M105.137 13.662 76.425.8a8.076 8.076 0 0 0-9.214 1.566L2.506 62.228c-2.352 2.144-.355 12.823 2 14.964l4.556 3.236a5.4 5.4 0 0 0 6.9.307l85.155-63.737a5.365 5.365 0 0 1 8.607 4.274v-.31a8.1 8.1 0 0 0-4.587-7.3Z"/><path fill="#007dd1" d="m105.136 115.312-28.711 12.861a8.075 8.075 0 0 1-9.214-1.566l-64.7-51.209c-3.389-3.217-3.3-9.426.006-13.174l6.476-6.017a5.5 5.5 0 0 1 6.972-.19l85.155 55.958a5.365 5.365 0 0 0 8.607-4.274v.31a8.1 8.1 0 0 1-4.591 7.301Z"/><path fill="#09f" d="M76.426 128.176a8.079 8.079 0 0 1-9.215-1.568 4.746 4.746 0 0 0 8.1-3.356V5.723a4.746 4.746 0 0 0-8.1-3.356A8.08 8.08 0 0 1 76.426.799l28.707 12.843a8.1 8.1 0 0 1 4.591 7.3v87.086a8.1 8.1 0 0 1-4.591 7.3Z"/></svg>